# xmcd CD database file
#
# Track frame offsets:
#	150
#	12576
#	22501
#	32475
#	37067
#	49031
#	62593
#	78410
#	91345
#	107304
#	119449
#	133376
#	140495
#	153755
#	166945
#
# Disc length: 3605 seconds
#
# Revision: 1
# Processed by: cddbd v1.5.2PL0 Copyright (c) Steve Scherf et al.
# Submitted via: CDex 1.70beta2
#
DISCID=b50e130f
DTITLE=Boris Vian - L'ingénieux romanesque [CD1)
DYEAR=2009
DGENRE=Jazz
TTITLE0=Complainte du progrès "Les arts ménagers"
TTITLE1=Les joyeux bouchers
TTITLE2=Bourrée de complexes
TTITLE3=Ah ! Si j'avais un franc cinquante
TTITLE4=La java des bombes atomiques
TTITLE5=On n'est pas là pour se faire engueuler
TTITLE6=Je bois
TTITLE7=J'suis snob
TTITLE8=Le déserteur
TTITLE9=Cinématographe
TTITLE10=Le petit commerce
TTITLE11=Mozart avec nous
TTITLE12=Barcelone
TTITLE13=La java des chaussettes à clous
TTITLE14=Le code de la route
EXTD=YEAR: 2009
EXTT0=
EXTT1=
EXTT2=
EXTT3=
EXTT4=
EXTT5=
EXTT6=
EXTT7=
EXTT8=
EXTT9=
EXTT10=
EXTT11=
EXTT12=
EXTT13=
EXTT14=
PLAYORDER=
